<?xml version="1.0" encoding="UTF-8"?>
<svg version="1.1" xmlns="http://www.w3.org/2000/svg" width="1024" height="1024">
<path d="M0 0 C337.92 0 675.84 0 1024 0 C1024 337.92 1024 675.84 1024 1024 C686.08 1024 348.16 1024 0 1024 C0 686.08 0 348.16 0 0 Z " fill="#0A0A0B" transform="translate(0,0)"/>
<path d="M0 0 C12.35004568 6.92320816 22.47147138 18.87949299 32.4375 28.82299805 C33.68381976 30.06303276 34.93032079 31.30288531 36.17698669 32.54257202 C40.21913239 36.56395252 44.25619385 40.5904169 48.29296875 44.6171875 C49.69206722 46.01223089 51.09119667 47.40724321 52.49035645 48.80222511 C59.054948 55.34784168 65.61717842 61.89581397 72.17647743 68.44673413 C79.72385003 75.9843019 87.27946552 83.51348133 94.84204006 91.03579587 C100.71005347 96.87364594 106.57036632 102.71915475 112.42497349 108.57044917 C115.91326142 112.0563911 119.40475098 115.53897458 122.90444946 119.01346397 C126.18997105 122.27568985 129.46582073 125.54732752 132.73457527 128.82635117 C133.93237073 130.02464136 135.13357112 131.21953957 136.33846855 132.4106884 C151.02252063 146.93654471 151.02252063 146.93654471 151.10546875 156.91796875 C151.15574219 158.30628906 151.15574219 158.30628906 151.20703125 159.72265625 C148.74317804 170.98220048 139.12209291 178.9719761 131.27416992 186.7668457 C129.92747126 188.11897289 128.58162319 189.4719477 127.23655701 190.82569885 C123.60108519 194.47931801 119.95318081 198.12027672 116.30227447 201.75846505 C112.47279195 205.57777743 108.65312723 209.40688889 104.8318634 213.23442078 C98.41583548 219.65771253 91.99145028 226.07255478 85.56225586 232.48266602 C78.14068921 239.88245724 70.73365445 247.29656028 63.33398455 254.71824294 C56.9666257 261.10378066 50.59147122 267.48145668 44.209791 273.85268182 C40.40426968 277.65198313 36.60146433 281.45389712 32.80568504 285.26293373 C29.23682345 288.84338961 25.65824232 292.41384338 22.0720768 295.97696495 C20.76136983 297.2824044 19.45401485 298.59121981 18.15037537 299.90371704 C3.5248946 314.6193474 3.5248946 314.6193474 -5.48828125 316.7421875 C-12.64838779 316.70903886 -17.24075916 314.92198916 -22.51953125 310.04296875 C-27.40964831 304.48367778 -30.02362541 300.4136287 -29.82512951 292.92447472 C-28.68607727 282.18427667 -20.02116333 274.85772161 -12.75268555 267.70849609 C-11.54891793 266.50614117 -10.34625484 265.30267957 -9.14460754 264.09820557 C-5.8999049 260.85207603 -2.64008651 257.62152994 0.62278771 254.3936801 C4.03772477 251.01012786 7.43838504 247.61228656 10.84062195 244.2159729 C17.27617303 237.79592467 23.72435581 231.38872228 30.17724055 224.98610175 C37.52690666 217.6924399 44.86227771 210.38447242 52.19651663 203.07530284 C67.27537939 188.04861763 82.37199369 173.03987634 97.48046875 158.04296875 C93.55628843 153.34741768 89.47714785 148.89444454 85.14306641 144.57617188 C84.54056564 143.97191879 83.93806488 143.36766571 83.31730652 142.74510193 C81.34553774 140.76896947 79.37017789 138.79647372 77.39453125 136.82421875 C76.00965026 135.43866305 74.62491764 134.05295903 73.24032593 132.66711426 C70.34543306 129.77075177 67.44875152 126.87619343 64.55078125 123.98291016 C60.853469 120.29128937 57.16065777 116.59520394 53.46918678 112.89774323 C50.61240014 110.03732653 47.75321556 107.17931626 44.89332199 104.32200623 C43.53155691 102.96090394 42.17052236 101.59907031 40.81026077 100.23646545 C31.84167959 91.23259688 31.84167959 91.23259688 22.40325928 82.73001099 C14.90822568 76.15392375 7.99603315 68.86814172 0.92553711 61.83813477 C-1.16133358 59.76462683 -3.25524414 57.69864642 -5.35571289 55.63891602 C-7.91795534 53.12632022 -10.46739239 50.60136191 -13.00846291 48.06736183 C-14.42991054 46.65575799 -15.8634483 45.25636144 -17.29728699 43.85734558 C-23.9211984 37.21185232 -29.41242839 30.5738234 -30.14453125 20.91796875 C-29.68466247 12.9759107 -24.67535175 7.86052721 -19.265625 2.48828125 C-13.71573196 -2.10558995 -6.66904983 -2.53320497 0 0 Z " fill="#FEFEFE" transform="translate(342.51953125,333.95703125)"/>
<path d="M0 0 C1.2659903 -0.00571014 2.53198059 -0.01142029 3.83633423 -0.01730347 C5.24214163 -0.01854881 6.64794913 -0.01967391 8.05375671 -0.02069092 C9.53213118 -0.02531952 11.01050446 -0.03034423 12.48887634 -0.03573608 C16.50756798 -0.04885827 20.52624291 -0.05530471 24.54495263 -0.05974674 C27.055821 -0.06267782 29.56668481 -0.0667827 32.07755089 -0.07125092 C39.93388673 -0.0849255 47.79021214 -0.09459229 55.64655906 -0.09845281 C64.71476589 -0.10293332 73.78282197 -0.120481 82.85098296 -0.1494534 C89.86084881 -0.17107199 96.87067224 -0.18115718 103.88057107 -0.18249393 C108.0670391 -0.18354185 112.25336542 -0.18944685 116.43979836 -0.20731354 C120.37883535 -0.22379729 124.31762415 -0.22594834 128.25668335 -0.21717453 C129.70063632 -0.21640431 131.14460264 -0.22074496 132.58852196 -0.23063278 C134.56336851 -0.24336083 136.53831488 -0.23568066 138.51318359 -0.22705078 C139.6172823 -0.22851734 140.72138102 -0.2299839 141.85893726 -0.2314949 C147.0870108 0.39817837 150.95577267 2.57971323 154.25956726 6.64044189 C154.75070007 7.22825439 155.24183289 7.81606689 155.74784851 8.42169189 C158.45009614 12.29462009 158.50656798 16.5995665 157.94706726 21.14044189 C156.21666178 27.13624177 153.20757703 30.19639125 147.84941101 33.23028564 C144.11598266 35.01650496 141.16374694 35.27300354 137.07290649 35.29434204 C135.84635345 35.3029425 134.61980042 35.31154297 133.3560791 35.32040405 C131.99440045 35.32483923 130.63272134 35.32913759 129.27104187 35.33331299 C127.83856508 35.34121587 126.40609028 35.34948494 124.97361755 35.35809326 C120.26556801 35.38430077 115.55750965 35.39962367 110.84941101 35.41387939 C109.2266292 35.41924036 107.60384745 35.42461788 105.98106575 35.43001175 C99.22722996 35.45164222 92.47339654 35.47037614 85.71953487 35.48163414 C76.05347499 35.49785402 66.38781832 35.53098183 56.72191042 35.58803499 C49.91920219 35.62681221 43.11660142 35.64627624 36.31378561 35.6515547 C32.25449788 35.65519871 28.19564032 35.66711711 24.1364727 35.69965744 C20.31220944 35.72987422 16.48863351 35.73600215 12.66427612 35.72427368 C11.26713553 35.72405405 9.8699618 35.73226725 8.47293282 35.74992752 C-0.05166638 35.85174833 -6.96187057 35.21778372 -14.05293274 30.14044189 C-18.13307321 25.80256333 -19.37850143 21.08576699 -19.25996399 15.19122314 C-18.65991246 9.24731645 -15.1055714 5.96073867 -10.77168274 2.33966064 C-7.28981894 -0.08973069 -4.10728011 0.01107718 0 0 Z " fill="#FBFBFB" transform="translate(565.0529327392578,617.8595581054688)"/>
</svg>
